<svg width="121" height="116" viewBox="0 0 121 116" fill="none" xmlns="http://www.w3.org/2000/svg">
<rect x="20.3926" y="14.0374" width="99.951" height="101.258" fill="#C5DCED"/>
<mask id="mask0_1123_6996" style="mask-type:alpha" maskUnits="userSpaceOnUse" x="0" y="0" width="121" height="116">
<rect x="0.141602" y="0.318604" width="120.202" height="114.976" fill="#AAFFF0"/>
</mask>
<g mask="url(#mask0_1123_6996)">
<path d="M80.6442 115.319C96.9629 115.319 110.192 102.298 110.192 86.2361C110.192 70.1741 96.9629 57.1533 80.6442 57.1533C64.3256 57.1533 51.0967 70.1741 51.0967 86.2361C51.0967 102.298 64.3256 115.319 80.6442 115.319Z" fill="#EED7C3"/>
<g opacity="0.2">
<path opacity="0.2" d="M68.3966 82.0234C73.0811 82.0234 76.8786 78.2857 76.8786 73.6749C76.8786 69.0642 73.0811 65.3264 68.3966 65.3264C63.7121 65.3264 59.9146 69.0642 59.9146 73.6749C59.9146 78.2857 63.7121 82.0234 68.3966 82.0234Z" fill="white"/>
</g>
<path d="M110.192 86.2358C110.192 102.296 96.9631 115.319 80.6459 115.319C64.3304 115.319 51.107 102.303 51.1001 86.2479C56.5195 92.583 64.6356 96.6064 73.7091 96.6064C90.0263 96.6064 103.255 83.5859 103.255 67.5236V67.5132C107.583 72.5719 110.192 79.1047 110.192 86.2358Z" fill="#C9B9AA"/>
<path d="M97.8283 116.417C97.1832 116.417 96.6577 115.892 96.6577 115.247C96.6577 114.602 97.1832 114.076 97.8283 114.076C98.4734 114.076 98.9989 114.602 98.9989 115.247C98.9989 115.894 98.4734 116.417 97.8283 116.417ZM97.8283 114.428C97.3757 114.428 97.008 114.796 97.008 115.249C97.008 115.701 97.3757 116.069 97.8283 116.069C98.2809 116.069 98.6486 115.701 98.6486 115.249C98.6486 114.796 98.2809 114.428 97.8283 114.428Z" fill="#E2BD9C"/>
<path d="M99.2935 98.0179C98.2928 98.0179 97.4795 97.2045 97.4795 96.2039C97.4795 95.2032 98.2928 94.3899 99.2935 94.3899C100.294 94.3899 101.107 95.2032 101.107 96.2039C101.107 97.2045 100.294 98.0179 99.2935 98.0179ZM99.2935 94.7402C98.4871 94.7402 97.8298 95.3975 97.8298 96.2039C97.8298 97.0103 98.4871 97.6676 99.2935 97.6676C100.1 97.6676 100.757 97.0103 100.757 96.2039C100.757 95.3957 100.102 94.7402 99.2935 94.7402Z" fill="#FFCC7F"/>
<path d="M27.8347 102.086C26.2531 102.086 24.9663 100.799 24.9663 99.2178C24.9663 97.6362 26.2531 96.3494 27.8347 96.3494C29.4163 96.3494 30.7031 97.6362 30.7031 99.2178C30.7031 100.801 29.4163 102.086 27.8347 102.086ZM27.8347 96.7014C26.4473 96.7014 25.3166 97.8304 25.3166 99.2195C25.3166 100.607 26.4456 101.738 27.8347 101.738C29.2221 101.738 30.3528 100.609 30.3528 99.2195C30.3528 97.8304 29.2221 96.7014 27.8347 96.7014Z" fill="#002B51"/>
<path d="M34.8273 104.319C34.2464 104.319 33.7729 103.846 33.7729 103.265C33.7729 102.684 34.2464 102.212 34.8273 102.212C35.4083 102.212 35.88 102.684 35.88 103.265C35.8818 103.846 35.4083 104.319 34.8273 104.319ZM34.8273 102.562C34.4406 102.562 34.125 102.878 34.125 103.265C34.125 103.652 34.4406 103.967 34.8273 103.967C35.2141 103.967 35.5297 103.652 35.5297 103.265C35.5314 102.878 35.2158 102.562 34.8273 102.562Z" fill="#FFCC7F"/>
<path d="M21.9696 97.9113C21.8725 97.9113 21.7944 97.8333 21.7944 97.7362V94.9354C21.7944 94.8383 21.8725 94.7603 21.9696 94.7603C22.0667 94.7603 22.1447 94.8383 22.1447 94.9354V97.7362C22.1447 97.8333 22.065 97.9113 21.9696 97.9113Z" fill="#FFCC7F"/>
<path d="M23.3695 96.51H20.5687C20.4716 96.51 20.3936 96.4319 20.3936 96.3348C20.3936 96.2377 20.4716 96.1597 20.5687 96.1597H23.3695C23.4666 96.1597 23.5446 96.2377 23.5446 96.3348C23.5446 96.4319 23.4666 96.51 23.3695 96.51Z" fill="#FFCC7F"/>
<path d="M88.2478 46.8198C86.6662 46.8198 85.3794 45.533 85.3794 43.9514C85.3794 42.3698 86.6662 41.083 88.2478 41.083C89.8294 41.083 91.1162 42.3698 91.1162 43.9514C91.1162 45.533 89.8294 46.8198 88.2478 46.8198ZM88.2478 41.4351C86.8604 41.4351 85.7297 42.564 85.7297 43.9531C85.7297 45.3422 86.8587 46.4712 88.2478 46.4712C89.6369 46.4712 90.7659 45.3422 90.7659 43.9531C90.7641 42.564 89.6352 41.4351 88.2478 41.4351Z" fill="white"/>
<path d="M72.6537 40.1917C72.5566 40.1917 72.4785 40.1137 72.4785 40.0166V36.3522C72.4785 36.255 72.5566 36.177 72.6537 36.177C72.7508 36.177 72.8288 36.255 72.8288 36.3522V40.0166C72.8288 40.1137 72.7508 40.1917 72.6537 40.1917Z" fill="#B1B196"/>
<path d="M74.487 38.3586H70.8226C70.7255 38.3586 70.6475 38.2806 70.6475 38.1835C70.6475 38.0863 70.7255 38.0083 70.8226 38.0083H74.487C74.5841 38.0083 74.6622 38.0863 74.6622 38.1835C74.6622 38.2806 74.5841 38.3586 74.487 38.3586Z" fill="#B1B196"/>
<path d="M106.989 65.5736H82.6954C81.0917 65.5736 79.7925 64.2744 79.7925 62.6707V11.7139C79.7939 10.1103 81.0932 8.81104 82.6954 8.81104H106.989C108.593 8.81104 109.892 10.1103 109.892 11.7139V62.6722C109.892 64.2744 108.593 65.5736 106.989 65.5736Z" fill="#E2E2E2"/>
<g opacity="0.3">
<path opacity="0.3" d="M109.892 21.9341V62.6384C109.892 64.2595 108.576 65.5747 106.957 65.5747H82.7289C81.1077 65.5747 79.7939 64.2609 79.7939 62.6384V53.1185C85.7992 51.5629 102.918 45.1745 109.892 21.9341Z" fill="#E2BD9C"/>
</g>
<path d="M101.457 21.4833C101.371 21.4833 101.29 21.4469 101.234 21.3813L98.773 18.5294C98.6666 18.4056 98.6797 18.2207 98.8035 18.1143C98.9273 18.008 99.1123 18.0211 99.2187 18.1449L101.427 20.7026L104.325 16.3141C104.416 16.1786 104.598 16.1407 104.733 16.231C104.869 16.3213 104.906 16.5034 104.816 16.6389L101.704 21.3522C101.653 21.4294 101.568 21.4775 101.476 21.4833C101.469 21.4833 101.463 21.4833 101.457 21.4833Z" fill="#B25833"/>
<path d="M94.7968 17.6336H84.2238C84.1422 17.6336 84.0767 17.568 84.0767 17.4865C84.0767 17.4049 84.1422 17.3394 84.2238 17.3394H94.7968C94.8783 17.3394 94.9439 17.4049 94.9439 17.4865C94.9439 17.568 94.8783 17.6336 94.7968 17.6336Z" fill="#002B51"/>
<path d="M94.0122 20.8448H85.008C84.9264 20.8448 84.8608 20.7792 84.8608 20.6976C84.8608 20.6161 84.9264 20.5505 85.008 20.5505H94.0122C94.0938 20.5505 94.1594 20.6161 94.1594 20.6976C94.1594 20.7792 94.0938 20.8448 94.0122 20.8448Z" fill="#002B51"/>
<path d="M101.458 33.6547C101.372 33.6547 101.29 33.6183 101.235 33.5527L98.7734 30.7008C98.6671 30.577 98.6802 30.392 98.804 30.2857C98.9278 30.1794 99.1128 30.1925 99.2191 30.3163L101.427 32.874L104.326 28.4854C104.416 28.35 104.598 28.3121 104.734 28.4024C104.869 28.4927 104.907 28.6748 104.817 28.8102L101.704 33.5236C101.653 33.6008 101.569 33.6489 101.477 33.6547C101.469 33.6547 101.464 33.6547 101.458 33.6547Z" fill="#FF5E47"/>
<path d="M94.7972 29.805H84.2243C84.1427 29.805 84.0771 29.7394 84.0771 29.6579C84.0771 29.5763 84.1427 29.5107 84.2243 29.5107H94.7972C94.8788 29.5107 94.9443 29.5763 94.9443 29.6579C94.9443 29.7394 94.8788 29.805 94.7972 29.805Z" fill="#002B51"/>
<path d="M94.0127 33.0164H85.0084C84.9269 33.0164 84.8613 32.9508 84.8613 32.8693C84.8613 32.7877 84.9269 32.7222 85.0084 32.7222H94.0127C94.0943 32.7222 94.1598 32.7877 94.1598 32.8693C94.1598 32.9508 94.0943 33.0164 94.0127 33.0164Z" fill="#002B51"/>
<path d="M101.458 45.8251C101.372 45.8251 101.29 45.7887 101.235 45.7231L98.7734 42.8698C98.6671 42.746 98.6802 42.561 98.804 42.4547C98.9278 42.3483 99.1128 42.3614 99.2191 42.4852L101.427 45.0429L104.326 40.6544C104.416 40.5189 104.598 40.4811 104.734 40.5714C104.869 40.6617 104.907 40.8437 104.817 40.9792L101.704 45.6925C101.653 45.7697 101.569 45.8178 101.477 45.8236C101.469 45.8251 101.464 45.8251 101.458 45.8251Z" fill="#B25833"/>
<path d="M94.7972 41.9754H84.2243C84.1427 41.9754 84.0771 41.9098 84.0771 41.8283C84.0771 41.7467 84.1427 41.6812 84.2243 41.6812H94.7972C94.8788 41.6812 94.9443 41.7467 94.9443 41.8283C94.9443 41.9098 94.8788 41.9754 94.7972 41.9754Z" fill="#002B51"/>
<path d="M94.0127 45.1866H85.0084C84.9269 45.1866 84.8613 45.121 84.8613 45.0394C84.8613 44.9579 84.9269 44.8923 85.0084 44.8923H94.0127C94.0943 44.8923 94.1598 44.9579 94.1598 45.0394C94.1598 45.121 94.0943 45.1866 94.0127 45.1866Z" fill="#002B51"/>
<path d="M101.458 57.996C101.372 57.996 101.29 57.9596 101.235 57.894L98.7734 55.0421C98.6671 54.9183 98.6802 54.7334 98.804 54.627C98.9278 54.5207 99.1128 54.5338 99.2191 54.6576L101.427 57.2153L104.326 52.8268C104.416 52.6913 104.598 52.6534 104.734 52.7437C104.869 52.834 104.907 53.0161 104.817 53.1516L101.704 57.8649C101.653 57.9421 101.569 57.9902 101.477 57.996C101.469 57.996 101.464 57.996 101.458 57.996Z" fill="#FF5E47"/>
<path d="M94.7972 54.1463H84.2243C84.1427 54.1463 84.0771 54.0807 84.0771 53.9992C84.0771 53.9176 84.1427 53.8521 84.2243 53.8521H94.7972C94.8788 53.8521 94.9443 53.9176 94.9443 53.9992C94.9443 54.0793 94.8788 54.1463 94.7972 54.1463Z" fill="#002B51"/>
<path d="M94.0127 57.3577H85.0084C84.9269 57.3577 84.8613 57.2922 84.8613 57.2106C84.8613 57.129 84.9269 57.0635 85.0084 57.0635H94.0127C94.0943 57.0635 94.1598 57.129 94.1598 57.2106C94.1598 57.2922 94.0943 57.3577 94.0127 57.3577Z" fill="#002B51"/>
<path d="M107.97 37.0653C107.888 37.0653 107.823 36.9998 107.823 36.9182V13.1928C107.823 13.1112 107.888 13.0457 107.97 13.0457C108.051 13.0457 108.117 13.1112 108.117 13.1928V36.9182C108.117 36.9983 108.051 37.0653 107.97 37.0653Z" fill="#002B51"/>
<path d="M107.97 45.9475C107.888 45.9475 107.823 45.882 107.823 45.8004V40.4039C107.823 40.3224 107.888 40.2568 107.97 40.2568C108.051 40.2568 108.117 40.3224 108.117 40.4039V45.8004C108.117 45.882 108.051 45.9475 107.97 45.9475Z" fill="#002B51"/>
<path d="M82.3619 68.7066C82.3576 68.7066 82.3532 68.7066 82.3488 68.7052C79.5028 68.1837 77.8307 66.9617 76.9291 66.0281C75.9488 65.0129 75.6473 64.1331 75.6357 64.0967C75.6225 64.0588 75.6444 64.0166 75.6823 64.0035C75.7216 63.9904 75.7624 64.0108 75.7755 64.0501C75.7871 64.085 77.015 67.5778 82.3765 68.561C82.4158 68.5683 82.4435 68.6061 82.4362 68.6469C82.4275 68.6819 82.3969 68.7066 82.3619 68.7066Z" fill="#00101E"/>
<path d="M78.8073 69.7108C78.8014 69.7108 78.7956 69.7093 78.7898 69.7093C76.5977 69.1617 75.2927 67.1444 75.2795 67.124C75.2577 67.089 75.2679 67.0439 75.3029 67.022C75.3364 67.0002 75.383 67.0104 75.4048 67.0439C75.4179 67.0643 76.6924 69.0321 78.8262 69.5651C78.8655 69.5753 78.8903 69.6147 78.8801 69.654C78.8699 69.6875 78.8393 69.7108 78.8073 69.7108Z" fill="#00101E"/>
<path d="M11.4097 37.3306L15.2371 38.7335L14.5052 41.0401L11.8172 39.6527L11.4097 37.3306Z" fill="#F98967"/>
<path d="M12.8448 39.7448L16.015 44.3197L14.0831 46.673C14.0831 46.673 13.0547 46.2117 11.2372 45.6967C9.4215 45.1816 8.3827 44.6509 7.7185 43.5601C7.35952 42.9722 7.28668 41.864 7.82429 41.6993C7.66127 40.9536 7.911 40.2374 8.53531 40.1229C8.53531 40.1229 8.35669 39.372 9.23594 38.9384C10.6649 38.2326 12.8448 39.7448 12.8448 39.7448Z" fill="#F98967"/>
<path d="M17.0191 43.9312C17.0191 43.9312 17.5342 41.7669 17.229 39.502C17.085 38.4285 17.0486 35.2757 16.3671 35.2913C15.6855 35.3052 15.2381 37.1747 14.756 38.5915C14.756 38.5915 12.8692 39.6997 13.3045 41.427C13.738 43.1542 15.7445 44.3127 15.7445 44.3127L17.0191 43.9312Z" fill="#F98967"/>
<path d="M12.2059 38.0052C11.8556 37.5924 11.3319 36.9473 10.3833 37.3774C9.65144 37.7086 9.40691 38.4023 9.5734 38.8445C9.65317 39.0579 10.6001 39.533 11.5244 40.0117C12.5233 40.5302 13.458 41.1857 13.8361 40.577C14.15 40.0706 12.558 38.4179 12.2059 38.0052Z" fill="#F98967"/>
<path d="M9.59295 44.0265C9.59295 44.0265 11.2127 44.5104 11.4676 43.9624C11.7226 43.4161 11.1624 43.227 11.1624 43.227C11.1624 43.227 11.7833 43.423 11.9428 42.7987C12.1006 42.1744 11.348 41.7981 11.348 41.7981C11.348 41.7981 12.9435 42.5871 13.4464 42.0582C13.9493 41.5293 12.9417 40.8269 12.796 40.7523C12.6504 40.6778 12.137 40.3569 12.137 40.3569C12.137 40.3569 10.519 38.5239 9.84615 39.3597C8.60618 40.8997 7.81885 43.2739 7.81885 43.2739C7.81885 43.2739 8.86284 43.9034 9.59295 44.0265Z" fill="#F98967"/>
<path d="M13.4555 40.8925C13.1017 40.8925 12.571 40.7052 11.8513 40.3272C11.0501 39.9075 10.3027 39.3959 10.294 39.3907C10.2541 39.363 10.2437 39.3092 10.2714 39.2693C10.2992 39.2294 10.3529 39.219 10.3928 39.2468C11.5131 40.015 13.4138 41.0642 13.7433 40.6081C13.9965 40.2578 13.4 39.5416 12.8242 38.8496C12.7566 38.7698 12.6907 38.6883 12.623 38.6086C12.5918 38.5704 12.597 38.5167 12.6352 38.4854C12.6733 38.4542 12.7271 38.4594 12.7583 38.4976C12.8242 38.5773 12.8918 38.6589 12.9577 38.7386C13.6046 39.5173 14.2168 40.2509 13.8855 40.7122C13.8006 40.8318 13.6566 40.8925 13.4555 40.8925Z" fill="#00101E"/>
<path d="M12.7997 42.3339C12.4927 42.3339 12.1736 42.2454 12.0002 42.1743C11.0759 41.8032 9.43875 40.891 9.42141 40.8824C9.37979 40.8581 9.36418 40.806 9.38846 40.7627C9.41274 40.7211 9.4665 40.7055 9.50812 40.7297C9.52373 40.7384 11.1522 41.6454 12.0661 42.0131C12.406 42.1501 12.9141 42.2212 13.1864 42.0824C13.2922 42.0287 13.3563 41.9506 13.3841 41.8396C13.5488 41.198 12.5551 40.6517 12.5447 40.6448C12.5014 40.6222 12.4858 40.5685 12.51 40.5251C12.5326 40.4817 12.5864 40.4679 12.6297 40.4904C12.6748 40.5147 13.7535 41.1095 13.5558 41.883C13.5142 42.0425 13.417 42.1622 13.2679 42.2385C13.1292 42.3079 12.9661 42.3339 12.7997 42.3339Z" fill="#00101E"/>
<path d="M11.6753 43.3656C11.5868 43.3656 11.4932 43.3518 11.3961 43.3223C11.0319 43.213 9.52487 42.7223 8.81904 42.3112C8.77742 42.287 8.76355 42.2332 8.78783 42.1916C8.8121 42.15 8.86587 42.1361 8.90749 42.1604C9.59077 42.5575 11.1082 43.0535 11.4464 43.1541C11.6371 43.2113 11.8036 43.2009 11.9389 43.1246C12.1279 43.0188 12.1904 42.8298 12.206 42.776C12.3048 42.4084 11.8348 42.143 11.4932 41.9488L11.4637 41.9315C11.4221 41.9072 11.4065 41.8534 11.4308 41.8118C11.455 41.7702 11.5088 41.7546 11.5504 41.7788L11.5799 41.7962C11.951 42.006 12.5095 42.3234 12.3759 42.8211C12.3239 43.0136 12.1938 43.1836 12.0256 43.2789C11.9216 43.3362 11.8036 43.3656 11.6753 43.3656Z" fill="#00101E"/>
<path d="M10.8081 44.3282C10.6277 44.3282 10.4162 44.304 10.1751 44.2554C9.6427 44.1479 8.83976 43.8721 8.80508 43.86C8.75999 43.8444 8.73571 43.7941 8.75132 43.749C8.76692 43.7039 8.81722 43.6796 8.86231 43.6953C8.87098 43.6987 9.68953 43.9797 10.2098 44.0837C10.8671 44.2155 11.2642 44.16 11.3943 43.9207C11.5781 43.5791 11.2902 43.2981 11.2781 43.2877C11.2434 43.2548 11.2416 43.1993 11.2746 43.1646C11.3075 43.1299 11.363 43.1282 11.3977 43.1611C11.5365 43.2912 11.748 43.6363 11.5486 44.0057C11.4307 44.2207 11.1862 44.3282 10.8081 44.3282Z" fill="#00101E"/>
<path d="M13.6686 39.7935C13.6582 39.7935 13.6461 39.7917 13.6357 39.7865C13.5906 39.7674 13.5698 39.7171 13.5871 39.6721C13.7866 39.1795 14.1456 38.8102 14.7144 38.5136C14.7577 38.4911 14.8098 38.5084 14.8323 38.55C14.8549 38.5934 14.8375 38.6454 14.7959 38.6679C14.2652 38.9454 13.9322 39.2836 13.7502 39.7362C13.7363 39.7726 13.7033 39.7935 13.6686 39.7935Z" fill="#00101E"/>
<path d="M35.4209 55.8535L28.321 50.5069L24.8214 58.6421L16.9168 41.8601L12.3628 44.6088C12.3628 44.6088 15.9717 58.023 17.255 61.5695C18.3337 64.554 20.2396 67.9947 23.1496 69.2642C24.8734 70.0168 28.021 69.5364 29.724 67.3357C33.026 63.0696 35.4209 55.8535 35.4209 55.8535Z" fill="#F98967"/>
<path d="M31.574 64.521C31 65.5217 30.3791 66.4876 29.7219 67.3357C28.0189 69.5347 24.873 70.0168 23.1492 69.2641C22.3185 68.9017 21.5693 68.3606 20.8999 67.7051C22.3185 65.8997 25.6239 63.0105 31.574 64.521Z" fill="#F46640"/>
<path d="M25.6152 60.5878C25.5822 60.5878 25.551 60.5687 25.5354 60.5375L20.7628 50.264C20.742 50.2207 20.7611 50.1687 20.8045 50.1478C20.8478 50.127 20.9016 50.1461 20.9207 50.1895L25.6932 60.463C25.714 60.5063 25.6949 60.5583 25.6516 60.5792C25.6412 60.5861 25.6273 60.5878 25.6152 60.5878Z" fill="#011D33"/>
<path d="M60.269 52.9779L68.7008 49.2754L71.3576 57.7592L81.1334 49.7887L84.3122 53.8988C84.3122 53.8988 78.9795 60.0397 77.4638 61.9421C75.9481 63.8445 73.1473 67.8627 70.0205 68.4038C68.1667 68.7246 66.0735 67.8714 64.9428 65.329C62.7524 60.3969 60.269 52.9779 60.269 52.9779Z" fill="#F98967"/>
<path d="M71.3583 57.7575C71.3583 57.7575 65.8522 62.641 65.5643 66.432C65.3354 66.106 65.1255 65.7401 64.9434 65.3273C64.17 63.5879 63.3618 61.5398 62.6387 59.6166C65.5435 59.2923 68.861 57.6812 70.6126 55.3799L71.3583 57.7575Z" fill="#F46640"/>
<path d="M70.0266 59.1241C70.0023 59.1241 69.978 59.1137 69.9607 59.0946C69.9277 59.0582 69.9312 59.0027 69.9676 58.9714L72.4389 56.7378C72.4753 56.7048 72.5308 56.7083 72.562 56.7447C72.595 56.7811 72.5915 56.8366 72.5551 56.8678L70.0838 59.1015C70.0682 59.1171 70.0474 59.1241 70.0266 59.1241Z" fill="#00101E"/>
<path d="M88.3632 48.5106L84.6311 46.733L82.0454 51.7813L84.312 53.8971C84.312 53.8971 86.1191 53.5606 87.9071 52.8513C89.7661 52.1143 91.0061 50.8605 91.7085 50.0072C92.8166 48.6632 93.4011 46.5527 93.0768 46.2613C92.7074 45.9284 88.3632 48.5106 88.3632 48.5106Z" fill="#F98967"/>
<path d="M92.762 52.4247L85.4679 52.7889C85.1124 52.8063 84.8107 52.534 84.7933 52.1785L84.1517 39.3262C84.1343 38.9707 84.4066 38.6689 84.7621 38.6516L92.0562 38.2874C92.4117 38.2701 92.7135 38.5423 92.7308 38.8978L93.3725 51.7501C93.3898 52.1056 93.1176 52.4074 92.762 52.4247Z" fill="#B25833"/>
<path d="M85.354 52.2143L92.8784 51.8391L92.2297 38.8291L84.7053 39.2042L85.354 52.2143Z" fill="#002B51"/>
<path d="M87.6253 47.1091C87.6097 47.1091 87.5924 47.1056 87.5785 47.0952C87.5369 47.0692 87.5248 47.0155 87.5508 46.9738L90.1677 42.8256C90.1937 42.784 90.2475 42.7718 90.2891 42.7978C90.3307 42.8239 90.3429 42.8776 90.3168 42.9192L87.6999 47.0675C87.6826 47.0935 87.6531 47.1091 87.6253 47.1091Z" fill="white"/>
<path d="M89.3778 46.7361C89.3622 46.7361 89.3466 46.7327 89.331 46.7223C89.2893 46.6963 89.2772 46.6425 89.3032 46.6009L91.2299 43.5209C91.2559 43.4793 91.3097 43.4671 91.3513 43.4932C91.3929 43.5192 91.4051 43.5729 91.3791 43.6146L89.4506 46.6963C89.435 46.7223 89.4055 46.7361 89.3778 46.7361Z" fill="white"/>
<path d="M80.106 50.8465C80.106 50.8465 80.1337 48.1619 81.195 46.8751C82.2026 45.6542 86.4688 42.2742 86.9977 42.7217C87.7712 43.3755 85.5826 45.6074 85.0762 46.7173C85.0762 46.7173 85.4023 48.5035 84.7745 49.7747C83.9715 51.4014 82.0448 51.7812 82.0448 51.7812L80.106 50.8465Z" fill="#F98967"/>
<path d="M45.5507 13.9328C45.5507 13.9328 43.8789 13.416 41.2932 13.6137C38.7092 13.8131 37.5161 15.0062 37.0183 16.2982C36.5206 17.5902 36.6212 19.1805 37.1172 22.6611C37.6149 26.1399 37.3409 28.6597 35.3275 31.0113C32.5111 34.3029 27.8998 35.3122 24.8025 40.8599C21.1798 47.3459 25.5222 53.8284 30.7093 53.6827C31.8677 53.6497 35.8651 54.6556 35.8651 54.6556L46.56 40.357L45.5507 13.9328Z" fill="#002B51"/>
<path d="M33.4375 36.76C33.4375 36.76 38.7112 34.8558 40.6154 24.7488L44.1307 29.1433V35.5876L42.5924 38.4439L33.4375 36.76Z" fill="#011D33"/>
<path d="M45.1308 14.2049C45.1308 14.2049 46.7314 11.2897 50.8207 12.6181C55.0071 13.9777 55.5135 22.4598 55.0227 25.3923C53.8261 32.5217 50.8485 35.0502 49.1854 36.5L43.5093 36.0942L45.1308 14.2049Z" fill="#002B51"/>
<path d="M47.97 16.6642C47.97 16.6642 51.6396 16.2879 52.9732 20.4933C54.8253 26.3324 49.1961 33.6127 49.1961 33.6127L45.4189 28.2522L47.97 16.6642Z" fill="#011D33"/>
<path d="M30.5754 74.8746C31.0211 71.1929 33.2478 69.6564 37.6267 69.2107L35.6219 78.1176C35.6219 78.1176 30.2042 77.9407 30.5754 74.8746Z" fill="#000204"/>
<path d="M47.8906 97.5632C47.8906 97.5632 46.7061 111.411 46.0454 115.944C46.0454 115.944 44.3771 133.839 44.4447 138.548C44.4447 138.548 43.6521 140.353 41.2659 141.168C38.8796 141.983 37.3968 138.345 37.3968 138.345L36.0684 120.751C36.0684 120.751 35.6019 116.105 35.2395 113.969C34.877 111.832 32.8081 97.4557 32.8081 97.4557L38.753 89.1921L47.8906 97.5632Z" fill="#F98967"/>
<path d="M40.2031 115.223C39.0706 115.223 38.0232 114.853 37 114.109C36.9601 114.082 36.9514 114.026 36.9809 113.986C37.0086 113.946 37.0641 113.938 37.104 113.967C38.7515 115.166 40.4719 115.358 42.52 114.572C42.5651 114.555 42.6154 114.578 42.6327 114.623C42.65 114.668 42.6275 114.718 42.5824 114.735C41.7413 115.06 40.954 115.223 40.2031 115.223Z" fill="#00101E"/>
<path d="M47.4765 102.215C47.0706 106.668 46.4567 113.118 46.0457 115.946C46.0457 115.946 45.7214 119.413 45.3676 123.695C43.5259 119.852 46.1567 113.204 44.5699 108.357C43.5641 105.284 40.9263 103.814 38.9424 103.122C41.2974 103.151 44.2595 102.959 47.4765 102.215Z" fill="#F46640"/>
<path d="M52.9614 96.0093C52.9614 96.0093 54.2257 101.193 57.3438 107.894C57.3438 107.894 57.6802 114.975 59.822 122.213C61.3307 127.315 63.5748 133.097 64.5789 137.698C64.5789 137.698 65.7617 139.276 68.2693 139.528C70.7787 139.779 71.3944 135.9 71.3944 135.9C71.3944 135.9 69.2058 112.828 68.8867 109.529C68.5815 106.382 67.5219 95.4318 67.5219 95.4318L58.9011 88.3406L52.9614 96.0093Z" fill="#F98967"/>
<path d="M67.2399 112.925C64.9681 112.925 64.3611 111.678 64.3351 111.62C64.3143 111.577 64.3334 111.525 64.3767 111.504C64.4201 111.483 64.4721 111.503 64.4929 111.546C64.4999 111.56 65.1727 112.926 67.7463 112.729C67.7897 112.723 67.8365 112.762 67.84 112.81C67.8434 112.859 67.807 112.9 67.7584 112.904C67.5781 112.918 67.4047 112.925 67.2399 112.925Z" fill="#00101E"/>
<path d="M33.5616 102.619C33.5616 102.619 39.7926 103.994 47.4787 102.215L50.3107 69.9306C46.1659 66.861 41.1661 67.735 35.8265 70.1734C35.8265 70.1734 32.913 76.4044 31.9419 83.8476C30.9724 91.2909 33.5616 102.619 33.5616 102.619Z" fill="#161C21"/>
<path d="M47.7749 79.6956C47.7749 79.6956 53.9695 99.9356 55.3656 103.165C55.3656 103.165 61.6243 104.183 68.1675 102.001C68.1675 102.001 67.0559 88.5071 65.9217 82.2258C64.7876 75.9445 62.9562 71.9315 62.9562 71.9315C57.4726 68.7995 52.4833 66.6283 50.3103 69.9302L47.7749 79.6956Z" fill="#161C21"/>
<path d="M67.1534 91.4605C63.1196 88.599 62.0479 80.084 56.214 75.5369C50.1928 70.8476 37.7099 73.1004 34.3906 73.8096C35.178 71.5604 35.8266 70.173 35.8266 70.173C41.1645 67.733 46.1659 66.8607 50.309 69.9285C52.482 66.6283 57.4713 68.7995 62.9531 71.9315C62.9531 71.9315 64.7862 75.9445 65.9186 82.2241C66.3557 84.6329 66.7875 88.1013 67.1534 91.4605Z" fill="#011D33"/>
<path d="M49.0688 84.0916L47.4785 102.214C46.0842 102.537 44.7367 102.755 43.4673 102.897L49.0584 84.0015L49.0688 84.0916Z" fill="#011D33"/>
<path d="M56.626 33.954C56.626 33.954 60.469 33.68 62.8518 35.8807C64.7265 37.6115 67.203 43.7124 68.1897 46.4386C69.1279 49.0313 71.8437 51.8338 71.8437 51.8338C72.0171 56.4173 65.578 59.8979 61.1696 59.6655C61.1696 59.6655 54.2397 35.6154 56.626 33.954Z" fill="#1ABA9D"/>
<g opacity="0.5">
<path opacity="0.5" d="M70.6146 55.3802C68.863 57.6815 65.5437 59.2926 62.6406 59.6169C62.3632 59.6481 61.3296 59.6429 61.0625 59.6481L61.1093 46.4629C61.1093 46.4629 67.8017 53.4622 70.5105 50.2834C71.2458 51.2112 71.8476 51.8338 71.8476 51.8338C71.8944 53.1223 71.4192 54.3241 70.6146 55.3802Z" fill="#166F5E"/>
</g>
<path d="M36.3969 35.3569C36.3969 35.3569 32.8262 35.4471 31.425 37.3686C30.1659 39.0976 29.3127 42.1256 27.8611 47.5988C26.4096 53.0719 24.4673 54.22 24.4673 54.22C26.6628 57.2098 30.3688 59.9065 33.8268 61.8956C35.5593 59.544 36.8981 57.0728 37.9161 54.5027L36.3969 35.3569Z" fill="#1ABA9D"/>
<g opacity="0.5">
<path opacity="0.5" d="M30.2137 48.8162C29.1125 54.116 24.4683 54.2218 24.4683 54.2218C24.4683 54.2218 26.4088 53.0737 27.8621 47.5988C28.9009 43.6882 29.631 41.0262 30.4218 39.1948C30.6663 40.9672 31.0305 44.89 30.2137 48.8162Z" fill="#166F5E"/>
</g>
<path d="M35.8487 35.402C37.9003 35.2078 42.0901 34.8939 42.0901 34.8939L49.4241 34.4586C49.4241 34.4586 56.0766 33.6938 58.0987 34.0736C58.0987 34.0736 61.6885 45.8454 61.9001 50.2347C62.0908 54.1887 60.6133 61.1984 60.9098 62.1124C61.2272 66.8086 62.6978 67.5734 63.6759 73.7281C61.9191 72.3095 49.96 67.726 36.2753 70.4366C31.5322 71.3765 30.5749 74.8762 30.5749 74.8762C30.0893 69.3926 35.5521 64.731 36.3169 61.5175C37.7459 55.4894 36.2163 45.9079 35.8487 35.402Z" fill="#1ABA9D"/>
<g opacity="0.5">
<path opacity="0.5" d="M41.8904 64.4456C38.4307 65.0387 35.068 66.0567 33.4639 66.5787C34.7194 64.645 35.9785 62.9403 36.3149 61.5165C36.6843 59.9626 36.8543 58.1695 36.9028 56.1873C37.7717 56.8844 39.9568 58.3273 43.7217 58.8909C48.7718 59.6487 53.1888 60.1534 53.5669 61.983C53.9449 63.8143 46.6873 63.6253 41.8904 64.4456Z" fill="#166F5E"/>
</g>
<path d="M36.7449 59.6956C36.7414 59.6956 36.7379 59.6956 36.7345 59.6956C36.6859 59.6904 36.6512 59.647 36.6564 59.5985C37.1143 55.5404 35.9159 48.9573 35.9038 48.8914C35.8951 48.8446 35.9263 48.7978 35.9749 48.7891C36.0234 48.7822 36.0685 48.8116 36.0772 48.8602C36.0893 48.9261 37.2929 55.5335 36.8316 59.6175C36.8281 59.6626 36.79 59.6956 36.7449 59.6956Z" fill="#00101E"/>
<path d="M60.9332 61.6359C60.8846 61.6359 60.8447 61.596 60.8447 61.5475C60.8499 59.8757 61.0979 58.2351 61.3372 56.6483C61.8246 53.4192 62.3292 50.0808 60.8517 46.2135C60.8343 46.1685 60.8569 46.1182 60.902 46.1008C60.947 46.0835 60.9973 46.106 61.0147 46.1511C62.5078 50.0618 62.0014 53.4244 61.5089 56.6761C61.2696 58.2559 61.0234 59.8913 61.0181 61.5492C61.0216 61.596 60.9817 61.6359 60.9332 61.6359Z" fill="#00101E"/>
<path d="M54.931 59.338C54.8842 59.338 54.846 59.3016 54.8443 59.2548C54.8426 59.2062 54.879 59.1646 54.9275 59.1628C54.9553 59.1611 57.6953 59.0085 59.5891 57.6558C59.629 57.6281 59.6828 57.6367 59.7122 57.6766C59.74 57.7165 59.7313 57.7703 59.6914 57.7997C57.7543 59.1837 54.964 59.338 54.9362 59.3397C54.9327 59.338 54.9327 59.338 54.931 59.338Z" fill="#00101E"/>
<path d="M42.2227 35.194L50.0821 34.9339L49.2185 25.2292L42.1377 25.2865L42.2227 35.194Z" fill="#F98967"/>
<path d="M42.1416 26.1704L42.1815 30.8858C45.1123 32.5836 48.4125 31.576 49.7444 31.0384L49.2155 25.2288C49.2155 25.2288 42.4486 25.8548 42.1416 26.1704Z" fill="#F46640"/>
<path d="M53.2854 34.103C52.8137 35.173 50.8974 38.7507 46.3347 38.8028C41.9628 38.853 40.0603 36.1095 39.5054 35.0915C40.9153 34.9805 42.0911 34.8938 42.0911 34.8938L49.4251 34.4568C49.4251 34.4568 51.2547 34.247 53.2854 34.103Z" fill="#F98967"/>
<path d="M40.2939 21.9634C39.6973 25.8671 41.5616 29.9113 44.404 30.3449C47.2463 30.7784 49.9916 27.4383 50.5882 23.5346C51.1848 19.6309 49.4054 16.6446 46.5631 16.2093C43.7207 15.7775 40.8905 18.0614 40.2939 21.9634Z" fill="#F98967"/>
<path d="M44.9067 30.4713C44.7333 30.4713 44.5616 30.4574 44.3899 30.4314C43.1413 30.2407 41.9898 29.4204 41.2319 28.1821C41.2059 28.1405 41.2198 28.0868 41.2614 28.0607C41.303 28.0365 41.3568 28.0486 41.3828 28.0902C42.1129 29.2851 43.2193 30.0759 44.4177 30.258C44.8148 30.3187 45.2224 30.3048 45.6264 30.2164C45.6733 30.206 45.7201 30.2355 45.7305 30.284C45.7409 30.3308 45.7114 30.3777 45.6628 30.3881C45.4097 30.4436 45.1582 30.4713 44.9067 30.4713Z" fill="#011D33"/>
<path d="M48.3331 16.1747C48.3331 16.1747 46.311 19.3414 39.7036 20.2033C39.7036 20.2033 40.5482 16.0065 43.4998 15.3128C46.4532 14.6174 48.3331 16.1747 48.3331 16.1747Z" fill="#002B51"/>
<path d="M49.0708 23.8016C48.5575 24.8838 48.3615 25.9937 49.083 26.3371C49.8061 26.6804 51.2386 26.0735 51.7519 24.9913C52.2653 23.9092 52.1751 22.5894 51.4519 22.2461C50.7287 21.9044 49.5842 22.7195 49.0708 23.8016Z" fill="#F98967"/>
<path d="M49.8857 25.1509C49.8753 25.1509 49.8649 25.1492 49.8545 25.1457C49.8094 25.1283 49.7868 25.0781 49.8042 25.033C50.1146 24.2109 50.6505 23.6092 51.3962 23.2502C51.4396 23.2294 51.4933 23.2467 51.5141 23.2918C51.5349 23.3352 51.5176 23.3872 51.4725 23.4097C50.7684 23.7496 50.262 24.3185 49.9672 25.0971C49.9551 25.1301 49.9204 25.1509 49.8857 25.1509Z" fill="#00101E"/>
<path d="M51.2223 24.5548C51.2085 24.5548 51.1946 24.5513 51.1807 24.5444C50.9084 24.3987 50.6726 24.3345 50.3691 24.3224C50.3205 24.3206 50.2824 24.279 50.2859 24.2305C50.2876 24.1819 50.3292 24.149 50.3778 24.1472C50.7055 24.1611 50.9709 24.2339 51.264 24.39C51.3073 24.4126 51.3229 24.4663 51.3004 24.5079C51.2848 24.5374 51.2536 24.5548 51.2223 24.5548Z" fill="#00101E"/>
<path d="M48.8415 21.7571C48.8415 21.7571 48.6871 20.6038 47.8356 20.2102C46.9893 19.82 46.2332 20.0229 46.1847 20.3194C46.1378 20.616 47.1662 20.616 47.6223 20.8085C48.1426 21.027 48.8415 21.7571 48.8415 21.7571Z" fill="#002B51"/>
<path d="M40.8013 21.1439C40.8013 21.1439 41.3233 20.1051 42.258 20.0114C43.1841 19.9195 43.8344 20.3583 43.7824 20.6548C43.7304 20.9514 42.7575 20.6132 42.2649 20.6462C41.7013 20.6843 40.8013 21.1439 40.8013 21.1439Z" fill="#002B51"/>
<path d="M45.3108 24.955C45.2067 24.955 44.2945 24.9411 43.9962 24.6185C43.9234 24.5405 43.8905 24.4521 43.8974 24.3532C43.9217 23.9942 44.6171 23.6543 44.8183 23.5641L44.9865 22.4612C44.9934 22.4126 45.0402 22.3797 45.0871 22.3883C45.1356 22.3953 45.1686 22.4404 45.1599 22.4889L44.9847 23.6387C44.9795 23.6682 44.9605 23.6942 44.9327 23.7064C44.6084 23.8451 44.0882 24.1486 44.0725 24.3654C44.0691 24.4156 44.0864 24.459 44.1246 24.5006C44.3344 24.7261 45.0524 24.7798 45.3108 24.7798C45.3593 24.7798 45.3975 24.8197 45.3975 24.8683C45.3975 24.9168 45.3593 24.955 45.3108 24.955Z" fill="#00101E"/>
<path d="M44.9205 26.8972C44.2095 26.8972 43.7135 26.6301 43.684 26.6145C43.6407 26.5919 43.6268 26.5382 43.6494 26.4948C43.6719 26.4532 43.7257 26.4359 43.769 26.4601C43.7777 26.4653 44.6569 26.9353 45.7252 26.5954C46.9964 26.1913 47.2461 24.8196 47.2496 24.8057C47.2583 24.7571 47.3033 24.7259 47.3502 24.7346C47.3987 24.7433 47.4299 24.7884 47.4213 24.8352C47.4195 24.8508 47.1525 26.3249 45.7772 26.7619C45.472 26.8607 45.1824 26.8972 44.9205 26.8972Z" fill="#00101E"/>
<path d="M42.2205 23.2606C42.2067 23.2606 42.1945 23.2606 42.1806 23.2588C41.6309 23.2328 41.4124 22.723 41.3725 22.4559C41.3656 22.4073 41.3985 22.364 41.4453 22.357C41.4939 22.3501 41.5373 22.3831 41.5442 22.4299C41.5477 22.4559 41.6465 23.0577 42.1876 23.0837C42.198 23.0837 42.2084 23.0837 42.2188 23.0837C42.7581 23.0837 43.1085 22.4039 43.1119 22.3969C43.1345 22.3536 43.1865 22.3362 43.2298 22.3588C43.2732 22.3813 43.2905 22.4333 43.268 22.4767C43.2524 22.5114 42.8674 23.2606 42.2205 23.2606Z" fill="#00101E"/>
<path d="M47.063 23.1945C47.0318 23.1945 47.0005 23.1927 46.9693 23.1893C46.1612 23.113 46.0519 22.3447 46.0502 22.3378C46.0433 22.2892 46.0779 22.2459 46.1265 22.2389C46.1716 22.232 46.2184 22.2667 46.2254 22.3135C46.2288 22.3395 46.319 22.95 46.9867 23.0141C47.5815 23.0696 48.0307 22.4401 48.0341 22.4332C48.0619 22.3933 48.1174 22.3846 48.1555 22.4106C48.1954 22.4384 48.2058 22.4921 48.1781 22.532C48.159 22.5615 47.7116 23.1945 47.063 23.1945Z" fill="#00101E"/>
</g>
</svg>
