<svg width="121" height="116" viewBox="0 0 121 116" fill="none" xmlns="http://www.w3.org/2000/svg">
<rect x="20.2515" y="14.0374" width="99.951" height="101.258" fill="#C5DCED"/>
<mask id="mask0_1123_7314" style="mask-type:alpha" maskUnits="userSpaceOnUse" x="0" y="0" width="121" height="116">
<rect y="0.318604" width="120.202" height="114.976" fill="#C4C4C4"/>
</mask>
<g mask="url(#mask0_1123_7314)">
<path d="M111.18 19.0687C111.18 19.6796 111.676 20.1756 112.287 20.1756C112.898 20.1756 113.394 19.6796 113.394 19.0687C113.394 18.4579 112.898 17.9619 112.287 17.9619C111.676 17.9619 111.18 18.4579 111.18 19.0687Z" fill="#B1B196"/>
<path d="M120.199 31.7479C119.334 31.7479 118.629 31.0431 118.629 30.1781C118.629 29.3132 119.334 28.6084 120.199 28.6084C121.064 28.6084 121.768 29.3132 121.768 30.1781C121.768 31.0431 121.065 31.7479 120.199 31.7479ZM120.199 28.9599C119.527 28.9599 118.98 29.5064 118.98 30.1781C118.98 30.8499 119.527 31.3963 120.199 31.3963C120.87 31.3963 121.417 30.8499 121.417 30.1781C121.417 29.5064 120.87 28.9599 120.199 28.9599Z" fill="#B25833"/>
<path d="M118.705 119.511C117.118 119.511 115.827 118.219 115.827 116.632C115.827 115.045 117.118 113.754 118.705 113.754C120.292 113.754 121.584 115.045 121.584 116.632C121.584 118.219 120.292 119.511 118.705 119.511ZM118.705 114.105C117.313 114.105 116.178 115.238 116.178 116.632C116.178 118.024 117.311 119.159 118.705 119.159C120.099 119.159 121.232 118.026 121.232 116.632C121.232 115.24 120.099 114.105 118.705 114.105Z" fill="#B25833"/>
<path d="M114.886 93.0741C114.303 93.0741 113.83 92.6008 113.83 92.0178C113.83 91.4348 114.305 90.9614 114.886 90.9614C115.469 90.9614 115.945 91.4348 115.945 92.0178C115.945 92.6008 115.469 93.0741 114.886 93.0741ZM114.886 91.313C114.498 91.313 114.182 91.6297 114.182 92.0178C114.182 92.4059 114.498 92.7226 114.886 92.7226C115.275 92.7226 115.591 92.4059 115.591 92.0178C115.591 91.628 115.275 91.313 114.886 91.313Z" fill="#FFCC7F"/>
<path d="M122.081 83.5032H119.27C119.173 83.5032 119.095 83.4248 119.095 83.3274C119.095 83.2299 119.173 83.1516 119.27 83.1516H122.081C122.178 83.1516 122.257 83.2299 122.257 83.3274C122.257 83.4248 122.178 83.5032 122.081 83.5032Z" fill="#00101E"/>
<path d="M18.0976 70.8185C17.3197 70.8185 16.688 70.1868 16.688 69.4089C16.688 68.631 17.3197 67.9993 18.0976 67.9993C18.8755 67.9993 19.5072 68.631 19.5072 69.4089C19.5072 70.1851 18.8755 70.8185 18.0976 70.8185ZM18.0976 68.3508C17.5146 68.3508 17.0395 68.8259 17.0395 69.4089C17.0395 69.9919 17.5146 70.467 18.0976 70.467C18.6806 70.467 19.1557 69.9919 19.1557 69.4089C19.1557 68.8242 18.6806 68.3508 18.0976 68.3508Z" fill="#E2BD9C"/>
<path d="M14.4793 55.1837C14.4793 55.7354 14.032 56.1827 13.4804 56.1827C12.9287 56.1827 12.4814 55.7354 12.4814 55.1837C12.4814 54.6321 12.9287 54.1848 13.4804 54.1848C14.032 54.1866 14.4793 54.6338 14.4793 55.1837Z" fill="#B25833"/>
<path d="M32.3598 50.4131C32.2624 50.4131 32.1841 50.3348 32.1841 50.2373V47.4267C32.1841 47.3293 32.2624 47.251 32.3598 47.251C32.4573 47.251 32.5356 47.3293 32.5356 47.4267V50.2373C32.5356 50.3348 32.4573 50.4131 32.3598 50.4131Z" fill="#B25833"/>
<path d="M33.7642 49.009H30.9536C30.8561 49.009 30.7778 48.9307 30.7778 48.8332C30.7778 48.7358 30.8561 48.6575 30.9536 48.6575H33.7642C33.8616 48.6575 33.9399 48.7358 33.9399 48.8332C33.9417 48.929 33.8616 49.009 33.7642 49.009Z" fill="#B25833"/>
<path d="M75.976 100.791C86.9246 89.8419 86.9246 72.0907 75.976 61.1421C65.0274 50.1935 47.2762 50.1935 36.3276 61.1421C25.379 72.0907 25.379 89.8419 36.3276 100.791C47.2762 111.739 65.0274 111.739 75.976 100.791Z" fill="#EED7C3"/>
<g opacity="0.5">
<path opacity="0.5" d="M75.976 100.791C86.9246 89.8419 86.9246 72.0907 75.976 61.1421C65.0274 50.1935 47.2762 50.1935 36.3276 61.1421C25.379 72.0907 25.379 89.8419 36.3276 100.791C47.2762 111.739 65.0274 111.739 75.976 100.791Z" fill="#5A5E61"/>
</g>
<path d="M61.0077 75.8693C61.0077 86.6277 52.2872 95.3483 41.5288 95.3483C37.3347 95.3483 33.4539 94.0222 30.2761 91.7703C28.8856 88.4463 28.1182 84.7952 28.1182 80.9666C28.1182 70.3979 33.9655 61.197 42.6008 56.4182C52.8615 56.9751 61.0077 65.4694 61.0077 75.8693Z" fill="#EED7C3"/>
<path d="M51.3684 84.2701C51.3458 84.2701 51.3232 84.2614 51.3058 84.244L37.0494 69.7788C37.0146 69.744 37.0163 69.6883 37.0494 69.6552C37.0842 69.6221 37.1399 69.6221 37.1729 69.6569L51.4293 84.1222C51.4641 84.157 51.4624 84.2126 51.4276 84.2475C51.4137 84.2614 51.391 84.2701 51.3684 84.2701Z" fill="#00101E"/>
<path d="M49.1586 86.7461C49.136 86.7461 49.1134 86.7374 49.096 86.72L38.5899 76.0816C38.5551 76.0468 38.5568 75.9911 38.5899 75.9581C38.6247 75.9233 38.6804 75.925 38.7152 75.9581L49.2213 86.5964C49.2561 86.6312 49.2543 86.6869 49.2213 86.72C49.2039 86.7374 49.1813 86.7461 49.1586 86.7461Z" fill="#00101E"/>
<path d="M129.984 70.6343C129.965 70.6343 129.946 70.6291 129.93 70.6151C120.174 63.0849 116.464 49.8031 116.428 49.6691C116.415 49.6221 116.443 49.5734 116.49 49.5612C116.537 49.549 116.586 49.5769 116.598 49.6221C116.635 49.7544 120.331 62.9805 130.04 70.4742C130.078 70.5037 130.085 70.5594 130.056 70.5977C130.037 70.6221 130.011 70.6343 129.984 70.6343Z" fill="#00101E"/>
<path d="M127.325 62.5579C127.305 62.5579 127.284 62.5509 127.268 62.5352C124.068 59.7195 120.918 54.8971 119.431 50.5377C119.416 50.4925 119.44 50.442 119.487 50.4264C119.532 50.4107 119.583 50.4351 119.599 50.4821C121.076 54.8154 124.205 59.6046 127.385 62.403C127.421 62.4343 127.425 62.49 127.393 62.5265C127.374 62.5474 127.35 62.5579 127.325 62.5579Z" fill="#00101E"/>
<path d="M69.579 23.0217L58.9702 10.9093C58.563 10.4447 58.7005 9.72247 59.2487 9.44055L66.9129 5.49011C67.2 5.34219 67.5516 5.40832 67.7656 5.65196L78.7624 18.2063C78.9904 18.4674 78.9139 18.8729 78.6058 19.0312L70.517 23.2009C70.2003 23.3628 69.8139 23.2897 69.579 23.0217Z" fill="#FFCC7F"/>
<g opacity="0.5">
<path opacity="0.5" d="M78.6041 19.0314L77.6766 19.51L67.8683 16.4558C67.2906 16.2748 66.8938 15.7405 66.8955 15.1332L67.2853 6.30298L67.3062 12.8012C67.3062 12.8012 67.1566 14.2334 67.5394 14.799C67.9223 15.3646 68.8237 15.4847 68.8237 15.4847C68.9299 15.6065 78.9087 18.4849 78.8895 18.6294C78.8669 18.793 78.7677 18.9461 78.6041 19.0314Z" fill="#FFB84C"/>
</g>
<path d="M78.8468 18.706C78.8381 18.706 78.8294 18.7043 78.8207 18.7025L68.2694 15.4186C67.6498 15.2255 67.2339 14.6616 67.2339 14.0125L67.2495 5.4503C67.2495 5.40157 67.2896 5.36328 67.3383 5.36328C67.387 5.36328 67.4271 5.40331 67.4253 5.45204L67.4097 14.0142C67.4097 14.585 67.7751 15.0827 68.3216 15.2516L78.8729 18.5355C78.9199 18.5494 78.946 18.5999 78.9303 18.6451C78.9181 18.6816 78.8851 18.706 78.8468 18.706Z" fill="#00101E"/>
<path d="M61.3708 6.91944C61.3377 6.91944 61.3064 6.90204 61.2925 6.87072C61.2716 6.82721 61.289 6.775 61.3325 6.75238L67.7698 3.59377C67.8133 3.57289 67.8655 3.59029 67.8882 3.6338C67.909 3.6773 67.8916 3.72951 67.8481 3.75213L61.4108 6.91074C61.3969 6.91596 61.383 6.91944 61.3708 6.91944Z" fill="#00101E"/>
<path d="M58.6335 26.0621C58.6318 26.0621 58.6283 26.0621 58.6265 26.0621C58.5308 26.0551 56.2076 25.8446 50.9484 22.8374C50.4942 22.5781 50.0853 22.3188 49.7181 22.0595C48.2736 22.9557 46.1035 23.5822 43.2755 23.8955C37.4787 24.5394 33.1088 23.1489 33.0653 23.1332C33.0183 23.1176 32.994 23.0688 33.0096 23.0218C33.0253 22.9749 33.074 22.9505 33.121 22.9662C33.1645 22.9801 37.5013 24.3601 43.2581 23.7197C46.0234 23.4134 48.1466 22.8078 49.5649 21.9481C46.7822 19.9363 46.4133 18.0307 46.3976 17.2337C46.3785 16.3026 46.7683 15.4951 47.4418 15.074C48.1205 14.6476 48.9576 14.6232 49.7355 15.0061C50.8788 15.5682 51.6515 16.8438 51.8046 18.4188C51.9421 19.8406 51.2791 21.0344 49.8816 21.955C50.2297 22.1969 50.6143 22.4388 51.0389 22.6825C56.2563 25.6636 58.6213 25.8829 58.644 25.8846C58.6927 25.8881 58.7292 25.9316 58.724 25.9786C58.717 26.0273 58.6788 26.0621 58.6335 26.0621ZM48.6147 14.9139C48.2319 14.9139 47.8612 15.0183 47.5305 15.2254C46.911 15.6135 46.5507 16.3635 46.5699 17.2319C46.5855 18.0064 46.951 19.8702 49.7215 21.8489C51.1016 20.9596 51.7577 19.8075 51.6237 18.4379C51.4775 16.9239 50.7396 15.7022 49.6519 15.1662C49.3126 14.9991 48.9593 14.9139 48.6147 14.9139Z" fill="#00101E"/>
<path d="M9.7998 16.1494L24.7158 30.4162L32.1102 17.5764L9.7998 16.1494Z" fill="#6A92E7"/>
<g opacity="0.5">
<path opacity="0.5" d="M32.1111 17.5761L28.4182 23.9891C28.2424 23.6045 28.1015 23.1694 28.0092 22.6786C27.5185 20.0612 25.7155 18.187 24.292 17.0767L32.1111 17.5761Z" fill="#6A92E7"/>
</g>
<path d="M9.7998 16.1494L27.0199 26.4432L31.2087 27.8893L29.4563 22.1134L9.7998 16.1494Z" fill="#161C21"/>
<path d="M29.4565 22.1997C29.4478 22.1997 29.4391 22.1979 29.4304 22.1962L20.6855 19.5005C20.6385 19.4866 20.6124 19.4361 20.6281 19.3908C20.642 19.3439 20.6907 19.3177 20.7377 19.3334L29.4826 22.0291C29.5296 22.043 29.5557 22.0935 29.5401 22.1387C29.5296 22.1753 29.4948 22.1997 29.4565 22.1997Z" fill="#00101E"/>
<g opacity="0.5">
<path opacity="0.5" d="M27.0204 26.4433C27.0204 26.4433 19.2066 19.8877 16.436 18.1631L29.4568 22.1118L31.2075 27.8895L27.0204 26.4433Z" fill="#161C21"/>
</g>
<path d="M75.2375 68.3918C75.5333 66.4897 77.8253 65.4559 78.6484 65.3132L77.6095 71.5817C77.6095 71.5817 74.8703 70.7551 75.2375 68.3918Z" fill="#000204"/>
<path d="M77.9772 65.3891C77.9772 65.3891 76.8912 71.6837 75.4903 79.6246C74.1137 87.421 73.2488 92.4226 72.5005 97.3737C72.0184 100.564 70.165 117.086 70.165 117.086C70.165 117.086 77.5316 119.312 85.5335 118.116L90.2792 74.2262L91.473 62.1626C91.473 62.1643 82.6359 62.1643 77.9772 65.3891Z" fill="#161C21"/>
<g opacity="0.5">
<path opacity="0.5" d="M89.6044 80.481L85.5357 118.118C83.7397 118.386 81.9768 118.48 80.3218 118.468L88.7761 73.5964L89.2999 73.6626L89.6044 80.481Z" fill="#434343"/>
</g>
<path d="M79.5883 78.0167C79.4908 78.0167 79.3933 78.0063 79.2959 77.9837C78.116 77.7209 76.9587 77.5904 75.8554 77.5921C75.8066 77.5921 75.7683 77.5521 75.7666 77.5051C75.7666 77.4564 75.8049 77.4163 75.8536 77.4163C76.9709 77.4181 78.1403 77.5469 79.3324 77.8131C79.6387 77.881 79.9502 77.8253 80.2113 77.653C80.4654 77.4842 80.6359 77.2266 80.6916 76.9273L83.081 64.1902C83.0897 64.1432 83.1367 64.1119 83.1837 64.1206C83.2307 64.1293 83.2637 64.1763 83.2533 64.2233L80.8639 76.9604C80.7995 77.3084 80.6011 77.606 80.307 77.8009C80.0912 77.9436 79.8423 78.0167 79.5883 78.0167Z" fill="#00101E"/>
<path d="M104.387 66.806C104.387 66.806 104.818 70.4154 105.067 78.9863C105.316 87.5571 105.25 94.9672 105.821 100.628C106.268 105.066 107.867 117.626 107.867 117.626C103.233 119.676 96.686 119.905 91.5991 118.254C91.5991 118.254 90.917 102.959 90.4175 98.7141C89.7736 93.2391 89.3438 73.3756 89.3438 73.3756L89.8136 64.2217C95.0397 62.9739 99.6567 63.4455 104.387 66.806Z" fill="#161C21"/>
<g opacity="0.5">
<path opacity="0.5" d="M107.868 117.625C103.232 119.675 96.687 119.906 91.6001 118.253C91.6001 118.253 91.5392 116.857 91.4365 114.792C93.8016 114.985 98.4881 114.637 100.089 109.24C102.225 102.037 102.348 93.1721 105.355 92.0862C105.442 95.2448 105.568 98.111 105.823 100.627C106.269 105.067 107.868 117.625 107.868 117.625Z" fill="#434343"/>
</g>
<g opacity="0.5">
<path opacity="0.5" d="M104.912 74.679C100.259 70.2013 94.5071 67.8154 89.6953 66.5415C84.1995 65.0884 80.249 64.7194 80.249 64.7194C81.6308 64.347 83.3815 64.1155 85.5952 64.159C87.0326 64.1886 88.4388 64.213 89.8101 64.2774C93.0383 64.4236 96.0734 64.7734 98.8718 65.8558C103.358 67.5909 104.651 70.2361 104.651 70.2361C104.651 70.2361 104.656 70.203 104.663 70.1386C104.745 71.3133 104.832 72.8187 104.912 74.679Z" fill="#434343"/>
</g>
<path d="M90.6507 73.8479C90.6472 73.8479 90.6454 73.8479 90.642 73.8479L87.5529 73.5538C87.5042 73.5485 87.4694 73.5068 87.4729 73.458C87.4781 73.4093 87.5199 73.3763 87.5686 73.378L90.6576 73.6721C90.7063 73.6773 90.7411 73.7191 90.7377 73.7678C90.7342 73.8148 90.6959 73.8479 90.6507 73.8479Z" fill="#00101E"/>
<path d="M89.9855 92.6329C89.9385 92.6329 89.8985 92.5946 89.8985 92.5476L89.2354 73.6725C89.2337 73.6238 89.272 73.5838 89.3207 73.582C89.3659 73.5855 89.4094 73.6186 89.4112 73.6673L90.0742 92.5424C90.076 92.5911 90.0377 92.6311 89.989 92.6329C89.989 92.6329 89.9872 92.6329 89.9855 92.6329Z" fill="#00101E"/>
<path d="M105.112 80.2049C105.11 80.2049 105.109 80.2049 105.105 80.2049L98.9619 79.7593C98.224 79.7054 97.648 79.1067 97.6236 78.3671L97.1885 65.2245C97.1868 65.1758 97.2251 65.1358 97.2738 65.134C97.3191 65.134 97.3626 65.1706 97.3643 65.2193L97.7994 78.3619C97.8203 79.011 98.3267 79.5366 98.9741 79.5836L105.117 80.0291C105.166 80.0326 105.203 80.0743 105.199 80.1231C105.197 80.1701 105.159 80.2049 105.112 80.2049Z" fill="#00101E"/>
<path d="M105.023 79.4305C105.021 79.4305 105.019 79.4305 105.018 79.4305L102.466 79.2895C102.418 79.2878 102.381 79.246 102.383 79.1973C102.386 79.1485 102.423 79.1085 102.475 79.1137L105.026 79.2547C105.075 79.2564 105.112 79.2982 105.11 79.3469C105.108 79.3939 105.068 79.4305 105.023 79.4305Z" fill="#00101E"/>
<path d="M97.2556 99.252C97.2504 99.252 97.2452 99.252 97.2399 99.2503C94.5338 98.7839 93.5697 95.8863 93.5592 95.8567C93.5436 95.8097 93.5697 95.761 93.6167 95.7454C93.6637 95.7314 93.7124 95.7558 93.7281 95.8028C93.7368 95.8306 94.6695 98.629 97.2713 99.0763C97.32 99.085 97.3513 99.1302 97.3426 99.1772C97.3339 99.2207 97.2974 99.252 97.2556 99.252Z" fill="#00101E"/>
<path d="M50.7217 34.7076L54.7609 34.1925L55.6293 39.7109L52.857 40.9935C52.857 40.9935 51.8494 40.3844 50.713 38.8686C49.5766 37.3528 49.1607 35.8127 48.743 34.8068C48.3253 33.8009 48.1583 31.6813 48.5533 31.5072C48.9988 31.3106 50.7217 34.7076 50.7217 34.7076Z" fill="#F98967"/>
<path d="M54.7606 34.1929C54.7606 34.1929 54.0384 31.3371 53.8713 30.7889C53.6451 30.0528 52.7732 27.5398 52.2302 27.5555C51.5602 27.5746 51.7638 30.0337 51.8212 30.8951C51.8769 31.7565 52.359 34.722 52.359 34.722L54.7606 34.1929Z" fill="#F98967"/>
<path d="M53.7933 35.0127C53.7933 35.0127 52.9057 32.143 52.7056 31.607C52.5072 31.0709 51.7624 28.4309 51.2177 28.4466C50.5476 28.4657 50.5703 30.8343 50.7617 31.7218C50.9444 32.5658 51.3899 35.5435 51.3899 35.5435L53.7933 35.0127Z" fill="#F98967"/>
<path d="M52.5726 35.9835C52.5726 35.9835 51.6851 33.1138 51.4849 32.5778C51.2865 32.0418 50.6722 29.3391 50.1293 29.3548C49.4592 29.3739 49.5758 31.8243 49.6315 32.6857C49.6872 33.5471 50.1693 36.5126 50.1693 36.5126L52.5726 35.9835Z" fill="#F98967"/>
<path d="M57.0944 38.1263C57.0944 38.1263 57.7923 36.1372 57.4964 35.0043C57.2006 33.8713 56.2382 31.0469 55.556 31.0155C54.8738 30.9825 54.6285 33.0012 54.7607 34.1933C54.7607 34.1933 53.6156 35.1905 53.9323 36.9482C54.2491 38.7076 55.6291 39.71 55.6291 39.71L57.0944 38.1263Z" fill="#F98967"/>
<path d="M54.2114 37.3482C54.1801 37.3482 54.1488 37.3308 54.1331 37.3013C53.5484 36.1753 53.7328 35.1381 54.6969 34.1322C54.73 34.0974 54.7857 34.0957 54.8222 34.1287C54.8571 34.1618 54.8588 34.2175 54.824 34.2523C53.919 35.1973 53.745 36.1666 54.2897 37.2177C54.3123 37.2612 54.2949 37.3134 54.2514 37.3361C54.2393 37.3448 54.2253 37.3482 54.2114 37.3482Z" fill="#00101E"/>
<path d="M52.9112 33.786C52.8729 33.786 52.8363 33.7599 52.8259 33.7216C52.4204 32.2441 51.9732 30.2933 51.686 28.7496C51.6773 28.7027 51.7086 28.6557 51.7556 28.647C51.8044 28.6383 51.8496 28.6696 51.8583 28.7166C52.1455 30.2567 52.591 32.2024 52.9947 33.6746C53.0069 33.7216 52.9808 33.7703 52.9338 33.7825C52.9268 33.786 52.9199 33.786 52.9112 33.786Z" fill="#00101E"/>
<path d="M51.6101 34.5675C51.5718 34.5675 51.537 34.5431 51.5248 34.5049C51.1941 33.3737 50.7434 31.4594 50.5346 29.9279C50.5276 29.8792 50.5624 29.8357 50.6094 29.8287C50.6581 29.82 50.7016 29.8548 50.7086 29.9036C50.9157 31.4263 51.3647 33.3302 51.6936 34.4544C51.7075 34.5014 51.6797 34.5501 51.6344 34.564C51.6275 34.5675 51.6188 34.5675 51.6101 34.5675Z" fill="#00101E"/>
<path d="M50.3706 35.5296C50.3358 35.5296 50.3028 35.5088 50.2888 35.474C49.8277 34.2732 49.5318 32.9453 49.4587 31.7341C49.4552 31.6854 49.4935 31.6436 49.5405 31.6401C49.5892 31.6366 49.631 31.6732 49.6345 31.7219C49.7076 32.9157 49.9982 34.2262 50.4542 35.4096C50.4716 35.4548 50.4489 35.5053 50.4037 35.5227C50.3915 35.5262 50.3811 35.5296 50.3706 35.5296Z" fill="#00101E"/>
<path d="M50.0463 35.7974C50.0202 35.7974 49.9941 35.7852 49.9767 35.7626C49.9471 35.7243 49.9541 35.6686 49.9941 35.6391C51.2523 34.6819 52.3278 33.9806 53.2832 33.495C53.3267 33.4724 53.3789 33.4898 53.4016 33.5333C53.4242 33.5768 53.4068 33.629 53.3633 33.6517C52.4183 34.1337 51.3498 34.8298 50.1003 35.78C50.0829 35.7922 50.0637 35.7974 50.0463 35.7974Z" fill="#00101E"/>
<path d="M71.8574 41.3982L66.3442 50.6199L57.0928 38.1265L52.8535 40.9944C52.8535 40.9944 54.653 46.311 56.79 50.6269C57.8533 52.7744 60.2671 57.193 61.7707 59.1404C63.3022 61.1243 66.0727 63.4302 68.8363 62.5443C73.0495 61.1922 80.3012 49.6436 80.3012 49.6436L71.8574 41.3982Z" fill="#F98967"/>
<path d="M74.8692 57.2008C72.8227 59.6981 70.569 61.9848 68.8339 62.5417C66.0704 63.4275 63.2981 61.1216 61.7701 59.1377C61.4273 58.6939 61.027 58.1231 60.6094 57.4827C62.642 58.3076 67.3077 59.8478 69.0706 57.481C70.7865 55.1768 68.5642 50.9045 67.353 48.9258L68.2144 47.4883C69.5092 51.3534 71.6723 54.6269 74.8692 57.2008Z" fill="#F46640"/>
<path d="M67.8564 52.7338C67.8303 52.7338 67.8025 52.7216 67.7851 52.699L63.4239 46.8551C63.3943 46.8168 63.4031 46.7611 63.4413 46.7316C63.4796 46.702 63.5353 46.7107 63.5649 46.749L67.926 52.5928C67.9556 52.6311 67.9469 52.6868 67.9086 52.7164C67.8947 52.7286 67.8756 52.7338 67.8564 52.7338Z" fill="#00101E"/>
<path d="M100.161 31.7599C100.156 31.7599 100.151 31.7599 100.146 31.7582C100.099 31.7495 100.066 31.7025 100.076 31.6555L100.68 28.4395C100.689 28.3925 100.734 28.3612 100.783 28.3699C100.83 28.3786 100.863 28.4238 100.852 28.4725L100.248 31.6886C100.24 31.7303 100.203 31.7599 100.161 31.7599Z" fill="#00101E"/>
<path d="M102.207 32.4961C102.189 32.4961 102.174 32.4909 102.158 32.4804C102.118 32.4543 102.106 32.3987 102.134 32.3586L104.728 28.4691C104.755 28.4291 104.81 28.4186 104.85 28.4447C104.89 28.4708 104.903 28.5265 104.875 28.5666L102.28 32.4561C102.263 32.4839 102.235 32.4961 102.207 32.4961Z" fill="#00101E"/>
<path d="M104.633 33.1848C104.607 33.1848 104.581 33.1726 104.563 33.1517C104.534 33.1134 104.539 33.0577 104.577 33.0282L106.248 31.7038C106.286 31.6742 106.342 31.6794 106.372 31.7177C106.401 31.756 106.396 31.8117 106.358 31.8413L104.687 33.1656C104.671 33.1778 104.652 33.1848 104.633 33.1848Z" fill="#00101E"/>
<path d="M92.1429 32.4205C89.8109 32.2674 83.2431 32.7825 83.2431 32.7825L79.1273 46.3724C80.3612 57.5728 74.8567 62.3186 75.2361 68.3921C75.2361 68.3921 76.5413 63.9788 85.596 64.1598C90.4148 64.2555 94.8856 64.3147 98.8726 65.8565C103.359 67.5916 104.654 70.2368 104.654 70.2368C104.654 70.2368 105.541 63.7125 104.979 56.0884C104.509 49.7276 103.39 34.4567 103.39 34.4567C103.39 34.4567 99.6748 32.9148 92.1429 32.4205Z" fill="#6A92E7"/>
<path d="M83.2425 32.783C83.2425 32.783 79.8176 32.8578 76.9079 34.6538C74.5481 36.1086 70.2948 43.6789 68.21 47.4779C69.5082 51.3552 71.6801 54.6426 74.8961 57.2235C77.2385 55.0342 79.1267 52.7927 80.4128 50.4816L83.2425 32.783Z" fill="#6A92E7"/>
<path d="M92.1403 37.4872C91.9924 37.4872 91.8427 37.4837 91.6896 37.4732C86.366 37.1687 84.6014 32.7101 84.584 32.6666C84.5666 32.6213 84.5892 32.5709 84.6345 32.5535C84.6797 32.5361 84.7302 32.5587 84.7476 32.6039C84.765 32.6474 86.4913 36.9999 91.7 37.2992C96.4562 37.5707 99.0127 33.3505 99.0388 33.307C99.0631 33.2652 99.1171 33.2513 99.1588 33.2757C99.2006 33.3001 99.2145 33.354 99.1902 33.3958C99.1641 33.4375 96.7155 37.4872 92.1403 37.4872Z" fill="#00101E"/>
<path d="M104.653 70.2359C104.653 70.2359 103.36 67.5907 98.8737 65.8556C95.0642 64.3834 90.8127 64.265 86.2393 64.1711C88.2858 61.3292 95.6002 61.0003 97.1769 57.0899C98.9259 52.7496 96.1275 48.4824 96.1275 48.4824L101.383 48.5016L104.638 51.4496C104.768 53.2195 104.886 54.8275 104.979 56.0875C105.541 63.7116 104.653 70.2359 104.653 70.2359Z" fill="#376DDF"/>
<path d="M79.03 52.6306C79.03 52.6306 79.03 52.6324 79.03 52.6341C77.8971 54.1916 76.5031 55.7196 74.8951 57.2215C73.1601 55.8275 71.7278 54.2282 70.5723 52.4392C71.9558 52.206 76.357 51.1322 79.178 46.698C79.1797 46.6997 79.5452 50.0881 79.03 52.6306Z" fill="#376DDF"/>
<path d="M78.6466 55.7682C78.6413 55.7682 78.6361 55.7682 78.6309 55.7665C78.5822 55.7578 78.5509 55.7126 78.5596 55.6638C79.153 52.3033 79.3096 49.2648 79.0381 46.3777C79.0329 46.329 79.0695 46.2872 79.1182 46.282C79.1669 46.2785 79.2087 46.3133 79.2139 46.362C79.4854 49.2666 79.3288 52.319 78.7318 55.6952C78.7266 55.7387 78.6883 55.7682 78.6466 55.7682Z" fill="#00101E"/>
<path d="M81.3291 42.9006L81.3726 51.7065C83.8682 52.4878 87.4131 52.4774 89.7173 51.8613L89.7747 43.0538C86.9015 43.2383 84.218 43.1443 81.3291 42.9006Z" fill="#FCEEDE"/>
<path d="M89.7735 43.0559L89.7178 51.8635C87.4119 52.4795 83.867 52.4917 81.3714 51.7086L81.3662 50.5861C82.708 50.2415 86.5749 48.7675 87.5129 43.1464C88.2577 43.1342 89.0095 43.1046 89.7735 43.0559Z" fill="#EED7C3"/>
<path d="M85.5757 46.4927C84.241 46.4927 82.8348 46.4213 81.3347 46.2786C81.286 46.2734 81.2512 46.2316 81.2546 46.1829C81.2599 46.1342 81.3016 46.1011 81.3503 46.1028C84.2096 46.3743 86.7278 46.3865 89.0494 46.1377C89.0981 46.1324 89.1416 46.1672 89.1468 46.216C89.152 46.2647 89.1172 46.3082 89.0685 46.3134C87.953 46.4335 86.7939 46.4927 85.5757 46.4927Z" fill="#00101E"/>
<path d="M103.164 34.3816C103.825 34.5295 107.396 36.1167 108.635 38.7949C110.075 41.9066 112.593 49.2488 112.593 49.2488C109.761 48.7024 106.923 49.6613 104.083 51.0152L101.246 38.9168L103.164 34.3816Z" fill="#6A92E7"/>
<path d="M112.595 49.2486C109.917 48.7334 107.23 49.5618 104.541 50.8009L103.493 43.8989C103.493 43.8989 107.785 42.954 106.389 36.146C107.289 36.8421 108.145 37.7331 108.636 38.7947C110.073 41.9063 112.595 49.2486 112.595 49.2486Z" fill="#376DDF"/>
<path d="M105.454 48.2254C105.454 48.2254 105.313 45.2147 104.098 42.7975C103.538 41.6837 100.99 40.4968 100.99 40.4968L100.536 44.6439L105.454 48.2254Z" fill="#F98967"/>
<path d="M102.233 48.9893L96.1146 50.0039C95.7404 50.0665 95.3872 49.8124 95.3245 49.4383L93.5285 38.6137C93.4659 38.2396 93.72 37.8863 94.0941 37.8236L100.213 36.8091C100.587 36.7464 100.94 37.0005 101.003 37.3746L102.799 48.1992C102.862 48.5734 102.608 48.9284 102.233 48.9893Z" fill="#161C21"/>
<path d="M97.7494 37.2183C97.5858 40.0741 95.4766 41.2226 94.0374 41.6734L93.531 38.6227C93.4701 38.245 93.7242 37.8865 94.1035 37.8239L97.7494 37.2183Z" fill="#262626"/>
<path d="M97.5718 47.3682L101.872 43.1462C102.807 43.4003 103.649 45.868 104.138 47.356C104.138 47.356 102.726 49.4965 100.475 49.6357C98.2227 49.7732 94.5141 48.5742 94.0112 47.3769C93.6509 46.5172 97.5718 47.3682 97.5718 47.3682Z" fill="#F98967"/>
<path d="M102.572 43.1269C102.572 43.1269 98.3794 42.5857 97.7025 42.5178C97.0255 42.4499 93.8251 42.3159 93.5571 42.9059C93.2265 43.6333 95.7359 44.2616 96.848 44.5557C97.8417 44.8184 101.223 45.9844 101.223 45.9844C103.129 45.8818 102.572 43.1269 102.572 43.1269Z" fill="#F98967"/>
<path d="M100.959 45.4282C100.959 45.4282 97.4854 44.5772 96.8154 44.4519C96.1454 44.3266 93.046 43.2059 92.6944 43.8637C92.3168 44.5668 94.9951 45.8459 95.9087 46.3158C96.8224 46.7856 100.028 48.2057 100.028 48.2057L100.959 45.4282Z" fill="#F98967"/>
<path d="M101.658 45.5845C101.658 45.5845 98.0812 45.548 97.4008 45.5793C96.7203 45.6106 93.4347 45.3235 93.2537 45.9448C93.0309 46.7122 95.8537 47.4693 96.8491 47.7199C97.8463 47.9687 101.384 48.5013 101.384 48.5013L101.658 45.5845Z" fill="#F98967"/>
<path d="M99.7031 45.1698C99.6996 45.1698 99.6961 45.1698 99.6926 45.1698C98.2325 44.9958 95.6256 44.3658 94.3273 43.875C94.2821 43.8576 94.2595 43.8071 94.2769 43.7619C94.2943 43.7167 94.3447 43.694 94.39 43.7114C95.6778 44.1987 98.2656 44.8235 99.7135 44.9975C99.7622 45.0027 99.797 45.0462 99.7901 45.095C99.7848 45.1367 99.7466 45.1698 99.7031 45.1698Z" fill="#00101E"/>
<path d="M99.4061 46.9174C99.4026 46.9174 99.3991 46.9174 99.3956 46.9174C97.7267 46.7051 95.9708 46.2492 94.173 45.5635C94.1278 45.5461 94.1052 45.4956 94.1226 45.4504C94.14 45.4051 94.1904 45.3825 94.2357 45.3999C96.0195 46.0804 97.7615 46.5328 99.4165 46.7434C99.4652 46.7504 99.4983 46.7939 99.4931 46.8426C99.4879 46.8844 99.4496 46.9174 99.4061 46.9174Z" fill="#00101E"/>
<path d="M98.5867 48.1526C98.5814 48.1526 98.5745 48.1526 98.5693 48.1509C97.2084 47.8828 95.8144 47.5139 94.4257 47.0527C94.3787 47.0371 94.3543 46.9883 94.37 46.9414C94.3856 46.8961 94.4344 46.87 94.4813 46.8857C95.8631 47.3434 97.2501 47.7123 98.6023 47.9786C98.6493 47.9873 98.6806 48.0343 98.6719 48.0812C98.665 48.123 98.6284 48.1526 98.5867 48.1526Z" fill="#00101E"/>
<path d="M112.593 49.2489C110.886 48.92 109.177 49.1375 107.466 49.6596L107.444 49.677L107.435 49.6683L104.458 46.7725L103.239 47.4146L99.9102 49.1706C99.9102 49.1706 103.194 55.6026 105.521 59.3425C107.846 63.0841 110.902 66.3367 112.821 66.2845C114.743 66.234 116.53 65.3569 116.82 63.2129C117.175 60.5694 114.354 53.2707 112.593 49.2489Z" fill="#F98967"/>
<path d="M111.57 54.9288C110.501 53.2198 109.078 51.4569 107.464 49.6627L107.468 49.6592C109.179 49.1389 110.887 48.9196 112.595 49.2485C112.779 49.6714 112.976 50.1291 113.181 50.6146C111.246 51.7266 111.57 54.9288 111.57 54.9288Z" fill="#F46640"/>
<path d="M112.048 55.6615C112.02 55.6615 111.992 55.6476 111.974 55.6233C109.531 52.1079 107.384 49.5445 105.407 47.7903C105.37 47.7572 105.367 47.7015 105.4 47.6667C105.433 47.6301 105.488 47.6267 105.523 47.6597C107.509 49.4244 109.667 51.9965 112.117 55.5241C112.145 55.5641 112.135 55.618 112.095 55.6459C112.082 55.6563 112.065 55.6615 112.048 55.6615Z" fill="#00101E"/>
<path d="M116.818 63.2144C116.528 65.3584 114.742 66.2338 112.819 66.286C110.9 66.3364 107.844 63.0839 105.519 59.3423C104.708 58.0405 103.78 56.4081 102.917 54.8367C105.404 57.6785 110.595 62.5513 116.839 62.3964C116.857 62.7027 116.85 62.976 116.818 63.2144Z" fill="#F46640"/>
<path d="M112.005 65.1966C111.965 65.1966 111.928 65.1687 111.919 65.127C111.909 65.08 111.94 65.033 111.987 65.0225L114.06 64.5892C114.107 64.577 114.154 64.6101 114.164 64.6571C114.175 64.7041 114.144 64.7511 114.097 64.7615L112.024 65.1948C112.017 65.1966 112.01 65.1966 112.005 65.1966Z" fill="#00101E"/>
<path d="M84.9381 21.8999C84.9381 21.8999 83.9879 20.5146 83.8748 18.4263C83.7443 16.0247 84.8807 13.7484 87.4076 12.7895C89.3219 12.0638 90.5436 13.0401 90.5436 13.0401C90.5436 13.0401 91.6051 11.7871 94.3687 12.4345C97.891 13.2594 98.6289 17.3647 98.662 20.003C98.6916 22.4289 97.67 26.2558 95.171 27.1016L84.9381 21.8999Z" fill="#002B51"/>
<path d="M98.4364 22.2567C98.0118 24.3259 96.9798 26.4926 95.1751 27.1034L93.5688 26.2872C93.3356 22.0914 92.5334 16.7888 93.8177 15.5427C93.8177 15.5427 96.1358 15.7585 97.4044 18.442C98.0292 19.7681 98.3111 21.1743 98.4364 22.2567Z" fill="#011D33"/>
<path d="M87.2352 21.9035C87.5067 23.0416 87.4702 24.1398 86.7114 24.3225C85.9526 24.5035 84.7066 23.6351 84.4351 22.4987C84.1636 21.3605 84.5169 20.1197 85.2757 19.9387C86.0344 19.756 86.9637 20.7671 87.2352 21.9035Z" fill="#F46640"/>
<path d="M87.9634 33.7397L96.0296 33.5465L95.2273 24.022H87.9634V33.7397Z" fill="#F98967"/>
<path d="M87.9614 24.9098V29.6416C90.953 31.3679 94.3483 30.3847 95.7179 29.8556L95.2254 24.0222C95.2271 24.0205 88.2799 24.5948 87.9614 24.9098Z" fill="#F46640"/>
<path d="M97.5444 33.0197C96.5803 34.0256 94.5929 35.6266 91.7562 35.5257C88.709 35.4178 87.1723 33.5348 86.5771 32.5585C88.5645 32.4419 90.9296 32.3427 92.146 32.421C94.2396 32.5585 96.0373 32.7778 97.5444 33.0197Z" fill="#F98967"/>
<path d="M85.5957 21.5827C85.8219 25.5384 88.4915 29.1216 91.3717 28.958C94.2519 28.7927 96.2532 24.9432 96.0269 20.9875C95.8007 17.0319 93.4339 14.4684 90.5538 14.6338C87.6736 14.7974 85.3712 17.6271 85.5957 21.5827Z" fill="#F98967"/>
<path d="M91.1631 29.0501C89.9658 29.0501 88.7563 28.4897 87.8113 27.4908C87.7783 27.456 87.78 27.4003 87.8148 27.3673C87.8496 27.3342 87.9053 27.3359 87.9384 27.3707C88.9042 28.3923 90.1555 28.9387 91.3685 28.8691C91.4137 28.8639 91.459 28.9039 91.4607 28.9527C91.4642 29.0014 91.4259 29.0431 91.3772 29.0449C91.3076 29.0484 91.2362 29.0501 91.1631 29.0501Z" fill="#011D33"/>
<path d="M94.5947 21.5625C94.3163 22.732 94.3528 23.8631 95.1342 24.0494C95.9156 24.2356 97.1947 23.3428 97.4749 22.1733C97.7534 21.0039 97.3914 19.7265 96.61 19.5403C95.8286 19.3541 94.8732 20.393 94.5947 21.5625Z" fill="#F98967"/>
<path d="M95.7481 22.5718C95.7429 22.5718 95.7394 22.5718 95.7341 22.57C95.6854 22.5631 95.6524 22.5178 95.6611 22.4691C95.7846 21.6599 96.1588 21.009 96.7679 20.5357C96.8062 20.5061 96.8619 20.513 96.8914 20.5513C96.921 20.5896 96.9141 20.6453 96.8758 20.6749C96.3015 21.1187 95.9517 21.7312 95.8351 22.4952C95.8281 22.5405 95.7898 22.5718 95.7481 22.5718Z" fill="#00101E"/>
<path d="M96.8494 21.7692C96.8407 21.7692 96.8338 21.7675 96.8251 21.7657C96.5501 21.6857 96.3239 21.6735 96.0472 21.7205C96.0002 21.7292 95.9532 21.6961 95.9462 21.6491C95.9375 21.6004 95.9706 21.5552 96.0176 21.5482C96.3186 21.4977 96.5745 21.5117 96.8738 21.5987C96.9208 21.6126 96.9469 21.6613 96.9347 21.7083C96.9225 21.7449 96.8877 21.7692 96.8494 21.7692Z" fill="#00101E"/>
<path d="M85.2808 19.1298C85.2808 19.1298 93.6654 18.6355 94.05 14.5493C94.05 14.5493 89.2347 13.2581 86.9253 15.6248C85.4896 17.0971 85.2808 19.1298 85.2808 19.1298Z" fill="#002B51"/>
<path d="M90.4079 23.5543C90.1712 23.5543 89.9345 23.523 89.7866 23.4185C89.6996 23.3576 89.6491 23.2758 89.6352 23.1784C89.583 22.8094 90.3975 21.224 90.4897 21.0448C90.5123 21.0013 90.5645 20.9839 90.608 21.0065C90.6515 21.0291 90.6672 21.0813 90.6463 21.1249C90.3052 21.7844 89.7762 22.9173 89.8092 23.1523C89.8162 23.2027 89.8423 23.241 89.8876 23.2741C90.1416 23.4516 90.8569 23.3542 91.111 23.3019C91.158 23.2915 91.205 23.3228 91.2154 23.3698C91.2258 23.4168 91.1945 23.4638 91.1475 23.4742C91.0866 23.4882 90.749 23.5543 90.4079 23.5543Z" fill="#00101E"/>
<path d="M94.2893 19.6109C94.2893 19.6109 93.6959 18.6068 92.7544 18.5772C91.8199 18.5476 91.2003 19.0314 91.2717 19.3238C91.343 19.6162 92.295 19.2124 92.791 19.2124C93.3565 19.2124 94.2893 19.6109 94.2893 19.6109Z" fill="#002B51"/>
<path d="M86.3677 20.6242C86.3677 20.6242 86.7645 19.5261 87.6833 19.3207C88.5952 19.1171 89.2948 19.4774 89.2792 19.7784C89.2635 20.0795 88.2524 19.8602 87.7651 19.9525C87.2082 20.0569 86.3677 20.6242 86.3677 20.6242Z" fill="#002B51"/>
<path d="M88.1448 21.7066C88.362 21.7066 88.5381 21.4479 88.5381 21.1288C88.5381 20.8097 88.362 20.551 88.1448 20.551C87.9276 20.551 87.7515 20.8097 87.7515 21.1288C87.7515 21.4479 87.9276 21.7066 88.1448 21.7066Z" fill="#000204"/>
<path d="M92.6052 21.4886C92.8224 21.4886 92.9985 21.2299 92.9985 20.9108C92.9985 20.5917 92.8224 20.333 92.6052 20.333C92.388 20.333 92.2119 20.5917 92.2119 20.9108C92.2119 21.2299 92.388 21.4886 92.6052 21.4886Z" fill="#000204"/>
<path d="M88.7651 24.4566C88.7651 24.4566 89.9276 24.6446 91.0954 24.5332C92.1169 24.4357 93.1524 23.8005 93.1524 23.8005C93.1524 23.8005 92.7017 25.3981 91.1963 25.5356C89.59 25.6835 88.7651 24.4566 88.7651 24.4566Z" fill="white"/>
<path d="M91.3503 26.017C91.2006 26.017 91.0979 25.9909 91.0875 25.9891C91.0405 25.977 91.0126 25.9282 91.0248 25.8812C91.037 25.8343 91.0857 25.8064 91.1327 25.8186C91.1379 25.8203 91.5713 25.9265 91.9228 25.6568C91.9611 25.6272 92.0168 25.6341 92.0464 25.6724C92.076 25.7107 92.069 25.7664 92.0307 25.796C91.7958 25.9752 91.5382 26.017 91.3503 26.017Z" fill="#00101E"/>
</g>
</svg>
