<svg width="93" height="31" viewBox="0 0 93 31" fill="none" xmlns="http://www.w3.org/2000/svg">
<path d="M7.58912 19.6228C5.95197 19.6228 4.67555 18.269 4.67555 16.2542C4.67555 14.3338 5.95197 12.9171 7.58912 12.9171C9.22627 12.9171 10.5304 14.3338 10.5304 16.2542C10.5304 18.269 9.25402 19.6228 7.58912 19.6228ZM12.3618 21.795C13.666 20.3783 14.332 18.5209 14.332 16.2542C14.332 13.9875 13.666 12.1615 12.3618 10.7448C11.0577 9.32816 9.47601 8.63555 7.58912 8.63555C5.70224 8.63555 4.12058 9.32816 2.81641 10.7448C1.51224 12.1615 0.874023 13.9875 0.874023 16.2542C0.874023 18.5209 1.51224 20.3783 2.81641 21.795C4.12058 23.2117 5.70224 23.9043 7.58912 23.9043C9.47601 23.9043 11.0577 23.2117 12.3618 21.795ZM22.6819 0.953945C18.9359 0.953945 16.827 3.44103 16.827 7.94295V8.95037H14.3852V12.4134H16.827V23.6525H20.7118V12.4134H23.3201V8.95037H20.7118V7.94295C20.7118 6.08551 21.3777 5.14105 22.6819 5.14105H24.0971V0.953945H22.6819ZM29.3115 18.1116C30.2271 18.395 30.5879 18.7413 30.5879 19.3709C30.5879 20.095 29.8942 20.5672 29.0062 20.5987C27.9795 20.5987 27.1193 19.7802 27.0916 18.8987H23.4843C23.512 20.4413 24.0393 21.7006 25.1215 22.6136C26.2036 23.5265 27.4801 23.9673 28.8952 23.9673C30.3936 23.9673 31.6978 23.558 32.8077 22.771C33.9147 22.0052 34.47 20.9116 34.4992 19.4901L34.5004 19.3709C34.5004 18.4894 34.3894 17.6709 33.2517 16.4431C32.7232 15.8734 32.0185 15.418 31.1136 15.1311L28.7842 14.4282C28.0628 14.2079 27.6743 13.8616 27.6465 13.3264C27.6188 12.6652 28.146 12.2245 29.0062 12.2245C29.9774 12.2245 30.4491 12.6652 30.4769 13.5153H34.1119C34.0842 11.8467 33.5569 10.6189 32.5303 9.83187C31.5036 9.04482 30.2549 8.63555 28.7842 8.63555C27.4246 8.63555 26.2591 9.0763 25.2602 9.92632C24.2613 10.7763 23.7618 11.7208 23.734 12.8227L23.729 13.0429C23.718 13.8231 23.7965 14.3233 24.178 15.2468C24.622 16.2227 25.8152 17.0727 27.6188 17.6079L29.3115 18.1116ZM39.687 16.3486C39.687 14.3023 41.0189 12.7912 42.6838 12.7912C44.3487 12.7912 45.6807 14.2393 45.6807 16.3486C45.6807 18.395 44.3487 19.8431 42.6838 19.8431C41.0189 19.8431 39.687 18.4894 39.687 16.3486ZM35.7745 30.8618H39.6038V21.858C40.242 23.1488 41.7404 23.9673 43.4053 23.9673C45.1257 23.9673 46.5964 23.2432 47.8173 21.8265C49.066 20.4098 49.6764 18.5524 49.6764 16.2542C49.6764 14.019 49.066 12.193 47.8173 10.7763C46.5964 9.35963 45.1257 8.63555 43.4053 8.63555C41.7404 8.63555 40.242 9.4226 39.6038 10.7763V8.95037H35.7745V30.8618ZM73.281 8.63555C71.3664 8.63555 69.7015 9.35963 68.3141 10.7763C66.9266 12.193 66.2329 14.019 66.2329 16.2542C66.2329 18.4894 66.9266 20.3468 68.3141 21.795C69.7015 23.2432 71.3664 23.9673 73.281 23.9673C75.6119 23.9673 77.693 22.8025 78.9139 20.8191L75.7784 18.3005C75.2234 19.2765 74.3909 19.7802 73.281 19.7802C72.4208 19.7802 71.6716 19.4654 71.0334 18.8042C70.3952 18.1431 70.0622 17.2931 70.0622 16.2542C70.0622 15.2855 70.3701 14.4915 70.9611 13.8721L71.0334 13.7986C71.6716 13.1375 72.4208 12.8227 73.281 12.8227C74.3909 12.8227 75.2234 13.3264 75.7784 14.3023L78.9139 11.7523C77.6653 9.7689 75.5841 8.63555 73.281 8.63555ZM89.0675 18.8042C88.4293 19.7172 87.4858 20.1894 86.2372 20.1894C84.711 20.1894 83.2404 19.3394 83.0461 17.7338H92.5361L92.5658 17.1921C92.5807 16.904 92.5916 16.6359 92.5916 16.3801C92.5916 14.138 91.9841 12.3154 90.7692 10.9123L90.6769 10.8078C89.4282 9.35964 87.8466 8.63555 85.9597 8.63555C84.0451 8.63555 82.4357 9.32816 81.1315 10.7448C79.8273 12.1615 79.1891 13.9875 79.1891 16.2542C79.1891 18.5209 79.8273 20.3783 81.1315 21.8265C82.4357 23.2432 84.0451 23.9673 85.9597 23.9673C88.7068 23.9673 90.6769 22.9599 91.8701 20.9765L89.0675 18.8042ZM64.3322 19.7172V23.9804H51.6142V19.7172H64.3322ZM88.7068 14.9949H83.1016C83.7121 11.6263 88.3183 11.6578 88.7068 14.9949Z" fill="#FFFDFA"/>
</svg>
